<?xml version="1.0" encoding="UTF-8"?>
<svg id="Layer_1" xmlns="http://www.w3.org/2000/svg" xmlns:xlink="http://www.w3.org/1999/xlink" version="1.1" viewBox="0 0 1024 480">
  <!-- Generator: Adobe Illustrator 30.0.0, SVG Export Plug-In . SVG Version: 2.1.1 Build 123)  -->
  <defs>
    <style>
      .st0 {
        fill: #121c28;
      }

      .st1 {
        fill: url(#linear-gradient2);
      }

      .st2 {
        fill: url(#linear-gradient1);
      }

      .st3 {
        fill: url(#linear-gradient3);
      }

      .st4 {
        fill: url(#linear-gradient6);
      }

      .st5 {
        fill: url(#linear-gradient8);
      }

      .st6 {
        fill: url(#linear-gradient7);
      }

      .st7 {
        fill: url(#linear-gradient5);
      }

      .st8 {
        fill: url(#linear-gradient4);
      }

      .st9 {
        fill: #404f60;
      }

      .st10 {
        fill: #44cb56;
      }

      .st11 {
        fill: #fdb61e;
      }

      .st12 {
        fill: url(#linear-gradient);
      }

      .st13 {
        fill: #4cc3f6;
      }

      .st14 {
        fill: #2a141f;
      }

      .st15 {
        fill: #2e3a44;
      }

      .st16 {
        fill: #aedaff;
      }

      .st17 {
        fill: #06e6bb;
      }

      .st18 {
        fill: #fec012;
      }

      .st19 {
        fill: #17461e;
      }

      .st20 {
        fill: #ccfdf9;
      }

      .st21 {
        fill: #fef5bb;
      }

      .st22 {
        fill: #01e0ef;
      }

      .st23 {
        fill: #cbfcd5;
      }

      .st24 {
        fill: #fc7456;
      }

      .st25 {
        fill: #572523;
      }

      .st26 {
        fill: #f79acb;
      }

      .st27 {
        fill: #8bf599;
      }

      .st28 {
        fill: #fe3d2f;
      }

      .st29 {
        fill: #576d82;
      }

      .st30 {
        fill: #17dcf5;
      }

      .st31 {
        fill: #fe9a08;
      }
    </style>
    <linearGradient id="linear-gradient" x1="487.7" y1="-359.4" x2="484.5" y2="57.9" gradientTransform="translate(62.3 151.2) scale(.6 -.6)" gradientUnits="userSpaceOnUse">
      <stop offset="0" stop-color="#3399a8"/>
      <stop offset="1" stop-color="#33e5cc"/>
    </linearGradient>
    <linearGradient id="linear-gradient1" x1="120.5" y1="-430.3" x2="118.1" y2="-255.5" gradientTransform="translate(62.3 151.2) scale(.6 -.6)" gradientUnits="userSpaceOnUse">
      <stop offset="0" stop-color="#338efe"/>
      <stop offset="1" stop-color="#6cf"/>
    </linearGradient>
    <linearGradient id="linear-gradient2" x1="120.9" y1="-294.5" x2="120.7" y2="-248.2" gradientTransform="translate(62.3 151.2) scale(.6 -.6)" gradientUnits="userSpaceOnUse">
      <stop offset="0" stop-color="#5bc1f5"/>
      <stop offset="1" stop-color="#baecfc"/>
    </linearGradient>
    <linearGradient id="linear-gradient3" x1="120.1" y1="21.3" x2="118.8" y2="134.9" gradientTransform="translate(62.3 151.2) scale(.6 -.6)" gradientUnits="userSpaceOnUse">
      <stop offset="0" stop-color="#fd3e2d"/>
      <stop offset="1" stop-color="#fd7a64"/>
    </linearGradient>
    <linearGradient id="linear-gradient4" x1="115.4" y1="90.5" x2="114.4" y2="139" gradientTransform="translate(62.3 151.2) scale(.6 -.6)" gradientUnits="userSpaceOnUse">
      <stop offset="0" stop-color="#fd8477"/>
      <stop offset="1" stop-color="#fbbec1"/>
    </linearGradient>
    <linearGradient id="linear-gradient5" x1="119.5" y1="-232.1" x2="120" y2="-79.4" gradientTransform="translate(62.3 151.2) scale(.6 -.6)" gradientUnits="userSpaceOnUse">
      <stop offset="0" stop-color="#3ecf5c"/>
      <stop offset="1" stop-color="#6df083"/>
    </linearGradient>
    <linearGradient id="linear-gradient6" x1="72.2" y1="-112.8" x2="91.7" y2="-124.1" gradientTransform="translate(62.3 151.2) scale(.6 -.6)" gradientUnits="userSpaceOnUse">
      <stop offset="0" stop-color="#103316"/>
      <stop offset="1" stop-color="#1c4e25"/>
    </linearGradient>
    <linearGradient id="linear-gradient7" x1="381.2" y1="-270.3" x2="377.8" y2="-33.7" gradientTransform="translate(62.3 151.2) scale(.6 -.6)" gradientUnits="userSpaceOnUse">
      <stop offset="0" stop-color="#006bd2"/>
      <stop offset="1" stop-color="#16dcf6"/>
    </linearGradient>
    <linearGradient id="linear-gradient8" x1="313.1" y1="-429.3" x2="316.3" y2="-298.9" gradientTransform="translate(62.3 151.2) scale(.6 -.6)" gradientUnits="userSpaceOnUse">
      <stop offset="0" stop-color="#f72866"/>
      <stop offset="1" stop-color="#ff56a3"/>
    </linearGradient>
  </defs>
  <path class="st0" d="M-4.2-12.3h1029.4v500.2H-4.2V-12.3Z"/>
  <g>
    <rect class="st9" x="46" y="37.2" width="387" height="408" rx="29.9" ry="29.9"/>
    <path class="st15" d="M425.8,55.1v348.1c0,16.5-13.4,29.9-29.9,29.9H68.7c-8.7,0-16.6-3.7-22.1-9.7,3.7,12.3,15.1,21.2,28.6,21.2h327.1c16.5,0,29.9-13.4,29.9-29.9V66.6c0-7.8-3-14.9-7.9-20.2.8,2.8,1.3,5.7,1.3,8.7Z"/>
    <path class="st29" d="M53.2,427.3V79.1c0-16.5,13.4-29.9,29.9-29.9h327.1c8.7,0,16.6,3.7,22.1,9.7-3.7-12.3-15.1-21.2-28.6-21.2H76.5c-16.5,0-29.9,13.4-29.9,29.9v348.1c0,7.8,3,14.9,7.9,20.2-.8-2.8-1.3-5.7-1.3-8.7Z"/>
    <g>
      <path class="st12" d="M346.3,120.9c4-10.9,14.6-12.5,24.9-12.3,11.7.2,21.1-.9,28.3,9.8,3.9,10.2,2.4,42.1,2.4,54.5v74.1c0,0,0,73.7,0,73.7,0,13.2.1,26.5,0,39.6-.1,8.3-2.4,18.6-11.4,20.9-8.5,2.2-28.8,3.1-36.4-.9-4-2-6.9-5.6-8.2-9.8-1.9-6.2-1-33.5-1-41.6v-61.9c.1,0,.1-89.4.1-89.4,0-9.6-1.1-49.5,1.4-56.7Z"/>
      <path class="st17" d="M346.3,120.9c4-10.9,14.6-12.5,24.9-12.3,11.7.2,21.1-.9,28.3,9.8-1.3,2-.5,1.5-2.2,2.3-6.8-9.2-14.3-9.2-25-9.4-9.1-.2-22.6,1.6-23,13.2-.4.5-.1.2-1,.6h.1c0,0-1.5-.3-1.5-.3-.6-.6-.6-2.7-.7-3.8Z"/>
      <path class="st20" d="M349.3,124.4c.4-11.6,13.9-13.4,23-13.2,10.7.2,18.2.2,25,9.4l.9,3.6-.3.3c-9.8-10.2-9.7-11.4-24.9-11.6-11.5-.2-17.3,2.1-23.7,11.5Z"/>
      <path class="st2" d="M103.2,315.7c14.4-8.2,28.3-11.4,45-8.9,7.4.2,15.8,3.2,22.2,6.8,8.6,4.8,14.3,10,20.3,18,13.7,18.5,14.9,46.2,3.6,66.2-17.3,30.5-59.9,38.7-89.2,21.5-13.9-8-23.9-21.3-27.7-36.8-4.2-16.1-1.7-33.2,7-47.4,5-8.1,10.9-14.3,19-19.3Z"/>
      <path class="st13" d="M98,327.7c18.9-20.8,61.5-20,81.2,0-6.1-1.9-2.8-3-10.2-.7-15.2,4.7-33.8,2.9-49.6,2.8-3.6,0-12.1-4.7-16.2-4.9-1.6,1.1-2.2,1.5-4,2.2l-1.2.5Z"/>
      <path class="st1" d="M103.2,315.7c14.4-8.2,28.3-11.4,45-8.9,7.4.2,15.8,3.2,22.2,6.8-1.9.1-3.3,0-4.6,1.2,10.8,6,18,11.7,24,22.7,1.6,2.9,4.6,6.7,3.9,10.2-2-1.5-3.5-6.8-5.5-9.5-2.8-4.1-5.2-7-9-10.2-19.7-20.1-62.3-20.8-81.2,0-5.2,4.5-6.9,6.8-10.6,12.6l-1.9-.3c5.3-10.4,12.2-16.7,21.6-23.3l-.4-1c-1.6-.3-1.9-.2-3.5,0Z"/>
      <path class="st13" d="M103.2,315.7c14.4-8.2,28.3-11.4,45-8.9,7.4.2,15.8,3.2,22.2,6.8-1.9.1-3.3,0-4.6,1.2-9.4-3.9-14.1-4.8-24.2-5.4-15.6.2-20.6.9-34.4,7.4l-.4-1c-1.6-.3-1.9-.2-3.5,0Z"/>
      <path class="st13" d="M85.6,340.1l1.9.3c-2,4.2-3,6.3-5.6,10.2.8-3.5,1.9-7.3,3.7-10.4Z"/>
      <path class="st0" d="M110.8,377.4c4.9.6,9.6,7.2,14.1,9.7,9.3,5.2,21.2,5.3,29.6-1.9,2.8-2.4,8.9-9,12.5-6.7,1.2,3.9.4,5.5-1.4,9.1-3.8,5.3-7.5,8.7-13.7,11.3-8.8,3.6-18.7,3.5-27.4-.4-7.7-3.5-18.1-11.7-13.6-21.2Z"/>
      <path class="st0" d="M158.7,339.4c.5,0,1,0,1.5,0,11.2-.3,10.9,14.5,3.1,21.6-10.5,1.5-13.3-13.9-4.6-21.5Z"/>
      <path class="st0" d="M114.7,338.8c11.9,2.7,11.4,16.6,1.8,22.7-3.5-1-5.2-2-7-5.4-1.8-3.4-2.1-7.5-.8-11.1,1.3-3.5,2.8-4.6,6-6.2Z"/>
      <path class="st3" d="M89.7,80.1c15.1-17.9,40.6-25.4,63.2-20.9,11.8,2.4,20.2,7.5,29.4,14.9,12.3,11.6,19.8,26.4,20.4,43.4.7,15.5-4.9,30.6-15.5,41.9-9.1,9.6-23.5,17.6-36.9,17.9-23.3.5-38.6,2.1-56.9-15.2-11.5-10.9-18.2-26-18.4-41.8-.2-14.6,5.3-29,14.6-40.1Z"/>
      <path class="st28" d="M182.3,74.1c12.3,11.6,19.8,26.4,20.4,43.4.7,15.5-4.9,30.6-15.5,41.9-9.1,9.6-23.5,17.6-36.9,17.9-23.3.5-38.6,2.1-56.9-15.2-11.5-10.9-18.2-26-18.4-41.8-.2-14.6,5.3-29,14.6-40.1l.8,3.7c-6.3,8.3-7.5,12.8-9.4,22.9-2.8,5.2-5.3,21.2,2.2,23.7,8.1,2.7,23,5.3,31.6,4.6-.9,1.5-.6.7-.9,2.3,1.6-1.3,6.4-6.1,7.7-6.6,13.7-5.7,32.1-5,41.6,6.9,2.5,0,13.4-5.8,17.4-6.3,4.4-.9,12.3.1,16.1-2.1,5.8-3.3,1.7-20.7-.7-24.7-1.2-3.6-3.2-9.7-4.8-12.9-2.7-6.5-6.4-10.8-11.3-15.6l2.2-1.9Z"/>
      <path class="st25" d="M114.1,137.3c1.6-1.3,6.4-6.1,7.7-6.6,13.7-5.7,32.1-5,41.6,6.9,2.4,3.7,6.4,9,.8,11.8-5.4,0-9.7-4.2-12.5-8.5-8.6-3.4-14-.6-21-2.2-4.8,2.9-12.6,10.4-15.4,11.3-2.5,0-2.8-.2-4.4-1.9-1-4,1.2-7.1,3.1-10.7Z"/>
      <path class="st14" d="M114.1,137.3c1.6-1.3,6.4-6.1,7.7-6.6,13.7-5.7,32.1-5,41.6,6.9,2.4,3.7,6.4,9,.8,11.8-5.4,0-9.7-4.2-12.5-8.5,5.3,2.1,7.2,7.6,12.1,7.6,1-1,1.3-1,1-2.8-2.6-16.6-17.4-16.4-30.4-16.4-8.8,0-27.4,10-21.1,19.4l.8.4c.9.5.6.3,1.1.8-2.5,0-2.8-.2-4.4-1.9-1-4,1.2-7.1,3.1-10.7Z"/>
      <path class="st14" d="M130.8,138.6l.5-.9c5-.9,17.5-1.5,20.5,3.2-8.6-3.4-14-.6-21-2.2Z"/>
      <path class="st8" d="M89.7,80.1c15.1-17.9,40.6-25.4,63.2-20.9,11.8,2.4,20.2,7.5,29.4,14.9l-2.2,1.9c4.9,4.8,8.6,9.2,11.3,15.6l-2.9-.2c-18.4-28-54.5-36.2-82.6-17.6-6.6,4.4-12.2,10.2-16.2,17-2.2,3.7-6.5,14.6-8.4,15.9,1.9-10.2,3.1-14.6,9.4-22.9l-.8-3.7Z"/>
      <path class="st24" d="M89.7,80.1c15.1-17.9,40.6-25.4,63.2-20.9,11.8,2.4,20.2,7.5,29.4,14.9l-2.2,1.9c-13.7-10.9-25.4-15.5-43.2-14.8-19,.7-34.4,7.6-46.3,22.5l-.8-3.7Z"/>
      <path class="st24" d="M191.4,91.7c1.7,3.2,3.7,9.3,4.8,12.9l-1.5-.3c-1.8-2.8-4.8-9.5-6.3-12.8l2.9.2Z"/>
      <path class="st14" d="M114.1,93.7c14.1.5,12,14.8,2,21.1-11.3,1-14.1-15.7-2-21.1Z"/>
      <path class="st25" d="M112.3,95.7c12.7-2.1,12.9,10.7,4.8,16.9-10.3,3.4-11.6-10.2-4.8-16.9Z"/>
      <path class="st14" d="M158.8,93.7c12.6-.5,16.4,14.6,5.7,21.3-4.1-.3-6.6-1.3-9.1-4.8-2-2.8-2.7-6.3-2-9.7.8-3.7,2.4-4.9,5.4-6.9Z"/>
      <path class="st25" d="M158,95.7c11.4-2,14.3,10,7.5,17.3-10.2,1.4-14-10.2-7.5-17.3Z"/>
      <path class="st7" d="M93.3,201.2c.6-.7,1.3-1.3,2-1.9,23.3-22.2,67.8-21.6,89.7,2.4,8.9,7.4,15,21.6,16.7,33,2.4,16.9-1.6,34.9-12.9,48-8.6,10-20.8,17.7-34,19.5-11.3.6-12.8-2.6-26.6-.4-14.5,3.7-36.8-12.4-43.4-24.9-5.6-4.3-9.3-25.2-9.2-32.4-.1-16.2,6.3-31.8,17.8-43.2Z"/>
      <path class="st27" d="M93.3,201.2c.6-.7,1.3-1.3,2-1.9,23.3-22.2,67.8-21.6,89.7,2.4-1.7.4-1.6.4-3.4,0l-.9.4c4.3,4.5,6.4,6.9,9.8,12l-1.2,1.5c-1.7-3.1-3.9-5.4-6.1-8.1-1.3-.7-5.8-3.7-6.6-3.5-11,2.3-19.6,2.7-30.7,2.8-16.7.1-26.9,0-43-4.9-2.3,1.6-3,1.9-5.6,3.1-6.2,5.4-7.2,10.4-12.1,15l-.4-.5c1.2-4,7.2-12.1,10-15.4l-1.5-2.8Z"/>
      <path class="st23" d="M93.3,201.2c.6-.7,1.3-1.3,2-1.9,23.3-22.2,67.8-21.6,89.7,2.4-1.7.4-1.6.4-3.4,0l-.9.4c4.3,4.5,6.4,6.9,9.8,12l-1.2,1.5c-1.7-3.1-3.9-5.4-6.1-8.1-18.1-23.1-65.9-24-85.8-2.6-6.2,5.4-7.2,10.4-12.1,15l-.4-.5c1.2-4,7.2-12.1,10-15.4l-1.5-2.8Z"/>
      <path class="st27" d="M93.3,201.2c.6-.7,1.3-1.3,2-1.9,23.3-22.2,67.8-21.6,89.7,2.4-1.7.4-1.6.4-3.4,0l-.9.4c-24.6-21.5-62.7-21.7-85.8,2l-1.5-2.8Z"/>
      <path class="st10" d="M84.8,276.9l.7.4c7.7,5.3,11,11.7,20.4,16.8,6.5,3.5,18.5,4.9,22.3,7.6-14.5,3.7-36.8-12.4-43.4-24.9Z"/>
      <path class="st27" d="M190.5,214.1c1.8,2.8,2.2,3.3,3.1,6.4l-.3,1.2c-1.9-1-3.1-4.1-4-6.1l1.2-1.5Z"/>
      <path class="st19" d="M111.6,264.7c-1.5-3.2-3.4-5.9-2.3-9.3,1.7-1.5.8-1.1,2.8-1.4,9.2,7.3,15.2,13.5,27.7,13.2,12.5-.2,20.9-13.2,26.4-13.1,3,4.7-1.5,9.1-2.4,12.4-.2,1.6-.5,2.4-1.6,3.7-11.1,12.2-34.1,12-46.3,1.5-2.1-1.8-4.1-4.1-4.3-6.9Z"/>
      <path class="st27" d="M111.6,264.7c13.2,15.9,34,18.2,49.6,4.2.9-.8,1.8-1.6,2.6-2.5-.2,1.6-.5,2.4-1.6,3.7-11.1,12.2-34.1,12-46.3,1.5-2.1-1.8-4.1-4.1-4.3-6.9Z"/>
      <path class="st19" d="M161.5,216.6c10.6,2.5,8.8,16.9-.4,22-9.6-4.7-10.9-18.8.4-22Z"/>
      <path class="st4" d="M114.5,216.5c11.8,2.4,10.1,15.2,2,21.9-3.5-1-5.3-2.1-7-5.4-1.6-3.2-1.9-6.9-.8-10.2,1.2-3.4,2.7-4.7,5.8-6.2Z"/>
      <path class="st6" d="M281.2,168.4c7.9-9.5,25.7-7.9,37-6.7,10.1,2.6,14.6,8.7,14.7,19.1v80.9c0,14.7.1,29.7-.2,44.3-.4,20.4-15.6,19.7-31.4,19.4-8.9.4-20.6-2.5-22.7-12.8-1.9-9.6-1.3-21.8-1.3-31.8v-48.6s0-34.3,0-34.3c0-9.9-1.4-21,3.8-29.5Z"/>
      <path class="st30" d="M281.2,168.4c7.9-9.5,25.7-7.9,37-6.7,10.1,2.6,14.6,8.7,14.7,19.1-1.2-.8-2-1.8-3-2.9l-.9,1.1c-1.4-.8-2.8-2.9-3.5-3-10.3-1.8-21.7,1.8-32.1-.2-4.3-.8-6,.9-8.1.4l-1.2-2.5-1.8-.5c-.7.9-.3.7-1.3.8.5-2,1.4-3.1,2.5-4.8l-2.4-.7Z"/>
      <path class="st20" d="M281.2,168.4c7.9-9.5,25.7-7.9,37-6.7,10.1,2.6,14.6,8.7,14.7,19.1-1.2-.8-2-1.8-3-2.9l-.9,1.1c-4.7-17.8-38.1-17.5-46.6-5.9-.7.9-.3.7-1.3.8.5-2,1.4-3.1,2.5-4.8l-2.4-.7Z"/>
      <path class="st22" d="M281.2,168.4c7.9-9.5,25.7-7.9,37-6.7-4.7,3.2-8.4.2-12,2-8.5,0-16.1-.8-22.6,5.4l-2.4-.7Z"/>
      <path class="st30" d="M318.2,161.7c10.1,2.6,14.6,8.7,14.7,19.1-1.2-.8-2-1.8-3-2.9-3.4-13.2-11.7-14-23.6-14.2,3.6-1.8,7.3,1.1,12-2Z"/>
      <path class="st5" d="M228.1,338.4c16.4.5,33.2-.2,49.5,0,9.5.1,30.7-2.4,36.4,5.6,6.1,8.7,4.5,30.1,3.1,40.4-2.5,15.2-11.6,26.5-23.9,34.8-18.8,12.2-47.9,10-64.6-4.8-11.8-10-18.6-25.9-18.6-41.4,0-8.9-1.3-23.1,5-30.3,3.6-4,8.1-4.2,13.1-4.5Z"/>
      <path class="st14" d="M233.6,364.7c5.6,1.5,10.5,12.8,17.5,15.7,9.6,4,22.7,3.5,30.3-4.4,2.8-2.9,7.9-12.9,12.6-10.1,1.5,3.8.6,5.9-.9,9.5-5.9,10.7-14.6,16.7-26.9,17.7-9.2.8-18.3-2.2-25.3-8.3-5.2-4.5-13.2-13.5-7.4-20.1Z"/>
      <path class="st26" d="M237.7,340.4c17.3-.4,35.5,1.3,53.1-.1,7.1-.6,18.6-.4,20.9,7.9l-.6.6c-1.8-.3-3.5-1.9-4.7-3.4-2.7-3.5-9.9-2.6-14.9-2.7-22.8-.1-45.6-2.2-68.3,1-1.4.2-4.8,3.7-5.9,4.8h-.7c.1-9.8,14.7-7.6,20.5-8.1h.6Z"/>
      <path class="st11" d="M214.8,228.4c0-2.2,0-4.1.2-6.2.8-5.3,3.7-10.1,8.2-13.1,7.2-5,21.1-4.5,29.5-3.3,6,.9,9.3,4.2,12.5,9,4.9,10.6,2.1,29.9,2.6,41.8.4,9.1.2,20.3,0,29.2-.1,15.8-10.8,20.5-25.1,20.5-9.5,0-22.2,0-26.5-11.4-2.3-7.3-2-20.7-1.3-28.6-.8-5.2-.3-31.2-.3-37.8Z"/>
      <path class="st31" d="M265.2,214.7c4.9,10.6,2.1,29.9,2.6,41.8.4,9.1.2,20.3,0,29.2-.1,15.8-10.8,20.5-25.1,20.5-9.5,0-22.2,0-26.5-11.4-2.3-7.3-2-20.7-1.3-28.6,1.5,9.8-.7,14.5,2.7,26.5,18.6,13.4,52.8,12.1,48.5-18-1.5-10.2,2.3-48.2-1.9-55.5v-.5s.8-4,.8-4Z"/>
      <path class="st18" d="M214.8,228.4c0-2.2,0-4.1.2-6.2.8-5.3,3.7-10.1,8.2-13.1,7.2-5,21.1-4.5,29.5-3.3,6,.9,9.3,4.2,12.5,9l-.9,4v.5s-1.1,0-1.1,0c-5.2-5.7-7.9-9.6-16.1-9.3-6.8.2-16.5-1-21.7,3.9-3.2,3-4.4,5.9-6.8,8.1l-.4-.5c-2.9,4.1-2.3,4.5-2.3,10.2l-.4-.2c0-.2,0-.5-.1-.7l-.5-2.3Z"/>
      <path class="st21" d="M218.2,221.4c.1-.5.3-1.1.5-1.6,3.3-10.9,14.2-12.3,24-12.1,10.7.2,16.7,1,21.7,11.1v.5s-1.1,0-1.1,0c-5.2-5.7-7.9-9.6-16.1-9.3-6.8.2-16.5-1-21.7,3.9-3.2,3-4.4,5.9-6.8,8.1l-.4-.5Z"/>
    </g>
  </g>
  <g>
    <g>
      <path class="st16" d="M606.9,226.6v-115.6l-26,115.6h-29.9l-25.8-116v116h-24.5V92.4h45.5l20.8,103.6,21-103.6h45.5v134.2h-26.5Z"/>
      <path class="st16" d="M691.4,228.8c-33.6,0-38.6-19.1-38.6-48.6s5.6-49.4,39-49.4,38,17.8,38,47.1-3.7,50.9-38.4,50.9ZM703.3,169.6c0-12.1-.7-22.8-11.7-22.8s-12.4,14.7-12.4,26.9v17.1c0,9.3.4,22.1,12.2,22.1s11.9-13.5,11.9-24.3v-18.9Z"/>
      <path class="st16" d="M781,228.8c-33.6,0-38.6-19.1-38.6-48.6s5.6-49.4,39-49.4,38,17.8,38,47.1-3.7,50.9-38.4,50.9ZM792.9,169.6c0-12.1-.7-22.8-11.7-22.8s-12.4,14.7-12.4,26.9v17.1c0,9.3.4,22.1,12.2,22.1s11.9-13.5,11.9-24.3v-18.9Z"/>
      <path class="st16" d="M883.7,226.6v-10c-5.4,8.4-12.6,11.9-22.5,11.9-26.9,0-29.1-23.8-29.1-48.4s2.8-49.2,27.7-49.2,17.3,3.2,22.8,11.3v-49.7h26.2v116.7c0,.9.6,16.5.6,17.4h-25.6ZM870.1,146.2c-10.8,0-11.9,13.7-11.9,34.1s.9,32.7,12.1,32.7,12.1-15.2,12.1-32.7-.7-34.1-12.2-34.1Z"/>
    </g>
    <g>
      <path class="st16" d="M542,384.9h-40.3v-134.2h46.2c22.3,0,38.8,6.3,38.8,33.2s-6.9,27.1-23.2,30.4c18.7,3.2,25.1,13.9,25.1,33.6,0,32.1-19.5,36.9-46.6,36.9ZM539.6,270.2h-10.4v35.8h9.8c14.1,0,20.6-3.9,20.6-18.4s-8.4-17.4-20-17.4ZM539,324.9h-9.8v40.5h9.8c12.2,0,21.7-2.8,21.7-20.6s-6.5-19.9-21.7-19.9Z"/>
      <path class="st16" d="M628.1,341.1c0,.7.2,7.6.2,8.2.6,15.2,2.6,22.5,11.7,22.5s11.3-9.3,11.3-17.8h25.2c-.7,23.2-12.2,33.2-36.4,33.2s-38-19.9-38-48.3,6.9-49.7,39-49.7,36,21.5,36,49.6v2.4h-49ZM650.4,314.9c-.9-5.9-3.5-10.4-10.2-10.4s-10,4.8-11.1,11.7c-.6,3.5-.7,6.9-.7,10.9h22.6c0-4.1,0-8.5-.6-12.2Z"/>
      <path class="st16" d="M741.9,384.9v-62.4c0-9.8-.6-17.8-10.4-17.8s-12.1,10.6-12.1,20.2v59.9h-26.2v-78.5c0-3.9,0-11.1-.6-15h26.4l.2,9.5c5.8-8.2,13.7-11.7,23.9-11.7,18.2,0,24.9,9.3,24.9,28.4v67.4h-26.2Z"/>
      <path class="st16" d="M822.6,387.1c-31.6,0-38.2-17.1-38.2-45.7s5-52.3,38.8-52.3,36.4,8.5,36.4,34.3h-25.1c-.2-8.2-.4-18.4-11.1-18.4s-12.8,16.3-12.8,33.6-.7,32.5,12.2,32.5,12.1-11.1,12.2-19.7h24.9c-.2,18.4-6.3,35.6-37.3,35.6Z"/>
      <path class="st16" d="M922.1,384.9v-62.2c0-8.9-.6-18-10.4-18s-12.1,9.5-12.1,19.9v60.3h-26.2v-134.2h26.2v49.7c5.9-7.8,13.9-11.3,24.1-11.3,18.9,0,24.5,10.8,24.5,28.4v67.4h-26.2Z"/>
    </g>
  </g>
</svg>